# xmcd CD database file
#
# Track frame offsets:
#	150
#	16170
#	28082
#	41262
#	58755
#	76805
#	98192
#	112537
#	127297
#	146895
#	161050
#	173600
#
# Disc length: 2513 seconds
#
# Revision: 2
# Processed by: cddbd v1.5.2PL0 Copyright (c) Steve Scherf et al.
# Submitted via: FreeDB 13.2
#
DISCID=9409cf0c
DTITLE=Henning Stærk - Let a Man Stand Up
DYEAR=1998
DGENRE=Rock
TTITLE0=Take a Look at My Heart
TTITLE1=Keep On
TTITLE2=Please Please Me
TTITLE3=Let a Man Stand Up
TTITLE4=Montgomery Jones
TTITLE5=Oughta Be a Law
TTITLE6=This Love Is Real
TTITLE7=Motel Matches
TTITLE8=Somebody Stand by Me
TTITLE9=One Step over the Line
TTITLE10=I Can't Stop (No, No, No)
TTITLE11=Secret Heart
EXTD=YEAR: 1998
EXTT0=
EXTT1=
EXTT2=
EXTT3=
EXTT4=
EXTT5=
EXTT6=
EXTT7=
EXTT8=
EXTT9=
EXTT10=
EXTT11=
PLAYORDER=
